<mxfile host="65bd71144e">
    <diagram id="79O-B0S8PXmrQ_XGulO5" name="Page-1">
        <mxGraphModel dx="3243" dy="658" grid="1" gridSize="10" guides="1" tooltips="1" connect="1" arrows="1" fold="1" page="1" pageScale="1" pageWidth="827" pageHeight="1169" math="0" shadow="0">
            <root>
                <mxCell id="0"/>
                <mxCell id="1" parent="0"/>
                <mxCell id="109" value="&lt;b&gt;user&lt;/b&gt;" style="swimlane;fontStyle=0;childLayout=stackLayout;horizontal=1;startSize=30;horizontalStack=0;resizeParent=1;resizeParentMax=0;resizeLast=0;collapsible=1;marginBottom=0;whiteSpace=wrap;html=1;fillColor=#B3B3B3;strokeColor=#FFFFFF;" parent="1" vertex="1">
                    <mxGeometry x="-900" y="530" width="140" height="240" as="geometry"/>
                </mxCell>
                <mxCell id="110" value="id" style="text;strokeColor=none;fillColor=#FFFFCC;align=left;verticalAlign=middle;spacingLeft=4;spacingRight=4;overflow=hidden;points=[[0,0.5],[1,0.5]];portConstraint=eastwest;rotatable=0;whiteSpace=wrap;html=1;" parent="109" vertex="1">
                    <mxGeometry y="30" width="140" height="30" as="geometry"/>
                </mxCell>
                <mxCell id="267" value="email" style="text;strokeColor=none;fillColor=#E6E6E6;align=left;verticalAlign=middle;spacingLeft=4;spacingRight=4;overflow=hidden;points=[[0,0.5],[1,0.5]];portConstraint=eastwest;rotatable=0;whiteSpace=wrap;html=1;" parent="109" vertex="1">
                    <mxGeometry y="60" width="140" height="30" as="geometry"/>
                </mxCell>
                <mxCell id="112" value="pseudo" style="text;strokeColor=none;fillColor=#E6E6E6;align=left;verticalAlign=middle;spacingLeft=4;spacingRight=4;overflow=hidden;points=[[0,0.5],[1,0.5]];portConstraint=eastwest;rotatable=0;whiteSpace=wrap;html=1;" parent="109" vertex="1">
                    <mxGeometry y="90" width="140" height="30" as="geometry"/>
                </mxCell>
                <mxCell id="113" value="Password" style="text;strokeColor=none;fillColor=#E6E6E6;align=left;verticalAlign=middle;spacingLeft=4;spacingRight=4;overflow=hidden;points=[[0,0.5],[1,0.5]];portConstraint=eastwest;rotatable=0;whiteSpace=wrap;html=1;" parent="109" vertex="1">
                    <mxGeometry y="120" width="140" height="30" as="geometry"/>
                </mxCell>
                <mxCell id="114" value="Role" style="text;strokeColor=none;fillColor=#E6E6E6;align=left;verticalAlign=middle;spacingLeft=4;spacingRight=4;overflow=hidden;points=[[0,0.5],[1,0.5]];portConstraint=eastwest;rotatable=0;whiteSpace=wrap;html=1;" parent="109" vertex="1">
                    <mxGeometry y="150" width="140" height="30" as="geometry"/>
                </mxCell>
                <mxCell id="125" value="Created_at" style="text;strokeColor=none;fillColor=#E6E6E6;align=left;verticalAlign=middle;spacingLeft=4;spacingRight=4;overflow=hidden;points=[[0,0.5],[1,0.5]];portConstraint=eastwest;rotatable=0;whiteSpace=wrap;html=1;" parent="109" vertex="1">
                    <mxGeometry y="180" width="140" height="30" as="geometry"/>
                </mxCell>
                <mxCell id="126" value="Updated_at" style="text;strokeColor=none;fillColor=#E6E6E6;align=left;verticalAlign=middle;spacingLeft=4;spacingRight=4;overflow=hidden;points=[[0,0.5],[1,0.5]];portConstraint=eastwest;rotatable=0;whiteSpace=wrap;html=1;" parent="109" vertex="1">
                    <mxGeometry y="210" width="140" height="30" as="geometry"/>
                </mxCell>
                <mxCell id="116" value="&lt;b&gt;recipe&lt;/b&gt;" style="swimlane;fontStyle=0;childLayout=stackLayout;horizontal=1;startSize=30;horizontalStack=0;resizeParent=1;resizeParentMax=0;resizeLast=0;collapsible=1;marginBottom=0;whiteSpace=wrap;html=1;fillColor=#B3B3B3;strokeColor=#FFFFFF;" parent="1" vertex="1">
                    <mxGeometry x="-720" y="530" width="140" height="420" as="geometry"/>
                </mxCell>
                <mxCell id="117" value="Id" style="text;strokeColor=none;fillColor=#CCE5FF;align=left;verticalAlign=middle;spacingLeft=4;spacingRight=4;overflow=hidden;points=[[0,0.5],[1,0.5]];portConstraint=eastwest;rotatable=0;whiteSpace=wrap;html=1;" parent="116" vertex="1">
                    <mxGeometry y="30" width="140" height="30" as="geometry"/>
                </mxCell>
                <mxCell id="118" value="Title" style="text;strokeColor=none;fillColor=#E6E6E6;align=left;verticalAlign=middle;spacingLeft=4;spacingRight=4;overflow=hidden;points=[[0,0.5],[1,0.5]];portConstraint=eastwest;rotatable=0;whiteSpace=wrap;html=1;" parent="116" vertex="1">
                    <mxGeometry y="60" width="140" height="30" as="geometry"/>
                </mxCell>
                <mxCell id="119" value="Picture" style="text;strokeColor=none;fillColor=#E6E6E6;align=left;verticalAlign=middle;spacingLeft=4;spacingRight=4;overflow=hidden;points=[[0,0.5],[1,0.5]];portConstraint=eastwest;rotatable=0;whiteSpace=wrap;html=1;" parent="116" vertex="1">
                    <mxGeometry y="90" width="140" height="30" as="geometry"/>
                </mxCell>
                <mxCell id="120" value="Description" style="text;strokeColor=none;fillColor=#E6E6E6;align=left;verticalAlign=middle;spacingLeft=4;spacingRight=4;overflow=hidden;points=[[0,0.5],[1,0.5]];portConstraint=eastwest;rotatable=0;whiteSpace=wrap;html=1;" parent="116" vertex="1">
                    <mxGeometry y="120" width="140" height="30" as="geometry"/>
                </mxCell>
                <mxCell id="153" value="Instruction" style="text;strokeColor=none;fillColor=#E6E6E6;align=left;verticalAlign=middle;spacingLeft=4;spacingRight=4;overflow=hidden;points=[[0,0.5],[1,0.5]];portConstraint=eastwest;rotatable=0;whiteSpace=wrap;html=1;" parent="116" vertex="1">
                    <mxGeometry y="150" width="140" height="30" as="geometry"/>
                </mxCell>
                <mxCell id="122" value="Anecdote" style="text;strokeColor=none;fillColor=#E6E6E6;align=left;verticalAlign=middle;spacingLeft=4;spacingRight=4;overflow=hidden;points=[[0,0.5],[1,0.5]];portConstraint=eastwest;rotatable=0;whiteSpace=wrap;html=1;" parent="116" vertex="1">
                    <mxGeometry y="180" width="140" height="30" as="geometry"/>
                </mxCell>
                <mxCell id="123" value="Completion_time" style="text;strokeColor=none;fillColor=#E6E6E6;align=left;verticalAlign=middle;spacingLeft=4;spacingRight=4;overflow=hidden;points=[[0,0.5],[1,0.5]];portConstraint=eastwest;rotatable=0;whiteSpace=wrap;html=1;" parent="116" vertex="1">
                    <mxGeometry y="210" width="140" height="30" as="geometry"/>
                </mxCell>
                <mxCell id="127" value="Created_at" style="text;strokeColor=none;fillColor=#E6E6E6;align=left;verticalAlign=middle;spacingLeft=4;spacingRight=4;overflow=hidden;points=[[0,0.5],[1,0.5]];portConstraint=eastwest;rotatable=0;whiteSpace=wrap;html=1;" parent="116" vertex="1">
                    <mxGeometry y="240" width="140" height="30" as="geometry"/>
                </mxCell>
                <mxCell id="128" value="Updated_at" style="text;strokeColor=none;fillColor=#E6E6E6;align=left;verticalAlign=middle;spacingLeft=4;spacingRight=4;overflow=hidden;points=[[0,0.5],[1,0.5]];portConstraint=eastwest;rotatable=0;whiteSpace=wrap;html=1;" parent="116" vertex="1">
                    <mxGeometry y="270" width="140" height="30" as="geometry"/>
                </mxCell>
                <mxCell id="161" value="user_id" style="text;strokeColor=none;fillColor=#FFFFCC;align=left;verticalAlign=middle;spacingLeft=4;spacingRight=4;overflow=hidden;points=[[0,0.5],[1,0.5]];portConstraint=eastwest;rotatable=0;whiteSpace=wrap;html=1;" parent="116" vertex="1">
                    <mxGeometry y="300" width="140" height="30" as="geometry"/>
                </mxCell>
                <mxCell id="166" value="dish_category_id" style="text;strokeColor=none;fillColor=#FFE6CC;align=left;verticalAlign=middle;spacingLeft=4;spacingRight=4;overflow=hidden;points=[[0,0.5],[1,0.5]];portConstraint=eastwest;rotatable=0;whiteSpace=wrap;html=1;" parent="116" vertex="1">
                    <mxGeometry y="330" width="140" height="30" as="geometry"/>
                </mxCell>
                <mxCell id="173" value="motion_id" style="text;strokeColor=none;fillColor=#E6FFCC;align=left;verticalAlign=middle;spacingLeft=4;spacingRight=4;overflow=hidden;points=[[0,0.5],[1,0.5]];portConstraint=eastwest;rotatable=0;whiteSpace=wrap;html=1;" parent="116" vertex="1">
                    <mxGeometry y="360" width="140" height="30" as="geometry"/>
                </mxCell>
                <mxCell id="257" value="difficulty_id" style="text;strokeColor=none;fillColor=#FF0080;align=left;verticalAlign=middle;spacingLeft=4;spacingRight=4;overflow=hidden;points=[[0,0.5],[1,0.5]];portConstraint=eastwest;rotatable=0;whiteSpace=wrap;html=1;" parent="116" vertex="1">
                    <mxGeometry y="390" width="140" height="30" as="geometry"/>
                </mxCell>
                <mxCell id="129" value="&lt;b&gt;motion&lt;/b&gt;" style="swimlane;fontStyle=0;childLayout=stackLayout;horizontal=1;startSize=30;horizontalStack=0;resizeParent=1;resizeParentMax=0;resizeLast=0;collapsible=1;marginBottom=0;whiteSpace=wrap;html=1;fillColor=#B3B3B3;strokeColor=#FFFFFF;" parent="1" vertex="1">
                    <mxGeometry x="-900" y="780" width="130" height="330" as="geometry"/>
                </mxCell>
                <mxCell id="130" value="id" style="text;strokeColor=none;fillColor=#E6FFCC;align=left;verticalAlign=middle;spacingLeft=4;spacingRight=4;overflow=hidden;points=[[0,0.5],[1,0.5]];portConstraint=eastwest;rotatable=0;whiteSpace=wrap;html=1;" parent="129" vertex="1">
                    <mxGeometry y="30" width="130" height="30" as="geometry"/>
                </mxCell>
                <mxCell id="131" value="Title" style="text;strokeColor=none;fillColor=#E6E6E6;align=left;verticalAlign=middle;spacingLeft=4;spacingRight=4;overflow=hidden;points=[[0,0.5],[1,0.5]];portConstraint=eastwest;rotatable=0;whiteSpace=wrap;html=1;" parent="129" vertex="1">
                    <mxGeometry y="60" width="130" height="30" as="geometry"/>
                </mxCell>
                <mxCell id="132" value="Picture" style="text;strokeColor=none;fillColor=#E6E6E6;align=left;verticalAlign=middle;spacingLeft=4;spacingRight=4;overflow=hidden;points=[[0,0.5],[1,0.5]];portConstraint=eastwest;rotatable=0;whiteSpace=wrap;html=1;" parent="129" vertex="1">
                    <mxGeometry y="90" width="130" height="30" as="geometry"/>
                </mxCell>
                <mxCell id="262" value="release_date" style="text;strokeColor=none;fillColor=#E6E6E6;align=left;verticalAlign=middle;spacingLeft=4;spacingRight=4;overflow=hidden;points=[[0,0.5],[1,0.5]];portConstraint=eastwest;rotatable=0;whiteSpace=wrap;html=1;" parent="129" vertex="1">
                    <mxGeometry y="120" width="130" height="30" as="geometry"/>
                </mxCell>
                <mxCell id="264" value="director" style="text;strokeColor=none;fillColor=#E6E6E6;align=left;verticalAlign=middle;spacingLeft=4;spacingRight=4;overflow=hidden;points=[[0,0.5],[1,0.5]];portConstraint=eastwest;rotatable=0;whiteSpace=wrap;html=1;" parent="129" vertex="1">
                    <mxGeometry y="150" width="130" height="30" as="geometry"/>
                </mxCell>
                <mxCell id="265" value="catchphrase" style="text;strokeColor=none;fillColor=#E6E6E6;align=left;verticalAlign=middle;spacingLeft=4;spacingRight=4;overflow=hidden;points=[[0,0.5],[1,0.5]];portConstraint=eastwest;rotatable=0;whiteSpace=wrap;html=1;" parent="129" vertex="1">
                    <mxGeometry y="180" width="130" height="30" as="geometry"/>
                </mxCell>
                <mxCell id="266" value="description" style="text;strokeColor=none;fillColor=#E6E6E6;align=left;verticalAlign=middle;spacingLeft=4;spacingRight=4;overflow=hidden;points=[[0,0.5],[1,0.5]];portConstraint=eastwest;rotatable=0;whiteSpace=wrap;html=1;" parent="129" vertex="1">
                    <mxGeometry y="210" width="130" height="30" as="geometry"/>
                </mxCell>
                <mxCell id="270" value="motion_format_id" style="text;strokeColor=none;fillColor=#FFCCE6;align=left;verticalAlign=middle;spacingLeft=4;spacingRight=4;overflow=hidden;points=[[0,0.5],[1,0.5]];portConstraint=eastwest;rotatable=0;whiteSpace=wrap;html=1;" vertex="1" parent="129">
                    <mxGeometry y="240" width="130" height="30" as="geometry"/>
                </mxCell>
                <mxCell id="133" value="&lt;span style=&quot;color: rgb(0, 0, 0);&quot;&gt;Created_at&lt;/span&gt;" style="text;strokeColor=none;fillColor=#E6E6E6;align=left;verticalAlign=middle;spacingLeft=4;spacingRight=4;overflow=hidden;points=[[0,0.5],[1,0.5]];portConstraint=eastwest;rotatable=0;whiteSpace=wrap;html=1;" parent="129" vertex="1">
                    <mxGeometry y="270" width="130" height="30" as="geometry"/>
                </mxCell>
                <mxCell id="134" value="&lt;span style=&quot;color: rgb(0, 0, 0);&quot;&gt;Updated_at&lt;/span&gt;" style="text;strokeColor=none;fillColor=#E6E6E6;align=left;verticalAlign=middle;spacingLeft=4;spacingRight=4;overflow=hidden;points=[[0,0.5],[1,0.5]];portConstraint=eastwest;rotatable=0;whiteSpace=wrap;html=1;" parent="129" vertex="1">
                    <mxGeometry y="300" width="130" height="30" as="geometry"/>
                </mxCell>
                <mxCell id="135" value="&lt;b&gt;dish_category&lt;/b&gt;" style="swimlane;fontStyle=0;childLayout=stackLayout;horizontal=1;startSize=30;horizontalStack=0;resizeParent=1;resizeParentMax=0;resizeLast=0;collapsible=1;marginBottom=0;whiteSpace=wrap;html=1;fillColor=#B3B3B3;strokeColor=#FFFFFF;" parent="1" vertex="1">
                    <mxGeometry x="-558.75" y="760" width="160" height="150" as="geometry"/>
                </mxCell>
                <mxCell id="137" value="id" style="text;strokeColor=none;fillColor=#FFE6CC;align=left;verticalAlign=middle;spacingLeft=4;spacingRight=4;overflow=hidden;points=[[0,0.5],[1,0.5]];portConstraint=eastwest;rotatable=0;whiteSpace=wrap;html=1;" parent="135" vertex="1">
                    <mxGeometry y="30" width="160" height="30" as="geometry"/>
                </mxCell>
                <mxCell id="261" value="name" style="text;strokeColor=none;fillColor=#E6E6E6;align=left;verticalAlign=middle;spacingLeft=4;spacingRight=4;overflow=hidden;points=[[0,0.5],[1,0.5]];portConstraint=eastwest;rotatable=0;whiteSpace=wrap;html=1;" parent="135" vertex="1">
                    <mxGeometry y="60" width="160" height="30" as="geometry"/>
                </mxCell>
                <mxCell id="157" value="&lt;span style=&quot;color: rgb(0, 0, 0);&quot;&gt;Created_at&lt;/span&gt;" style="text;strokeColor=none;fillColor=#E6E6E6;align=left;verticalAlign=middle;spacingLeft=4;spacingRight=4;overflow=hidden;points=[[0,0.5],[1,0.5]];portConstraint=eastwest;rotatable=0;whiteSpace=wrap;html=1;" parent="135" vertex="1">
                    <mxGeometry y="90" width="160" height="30" as="geometry"/>
                </mxCell>
                <mxCell id="158" value="&lt;span style=&quot;color: rgb(0, 0, 0);&quot;&gt;Updated_at&lt;/span&gt;" style="text;strokeColor=none;fillColor=#E6E6E6;align=left;verticalAlign=middle;spacingLeft=4;spacingRight=4;overflow=hidden;points=[[0,0.5],[1,0.5]];portConstraint=eastwest;rotatable=0;whiteSpace=wrap;html=1;" parent="135" vertex="1">
                    <mxGeometry y="120" width="160" height="30" as="geometry"/>
                </mxCell>
                <mxCell id="139" value="&lt;b&gt;ingredient&lt;/b&gt;" style="swimlane;fontStyle=0;childLayout=stackLayout;horizontal=1;startSize=30;horizontalStack=0;resizeParent=1;resizeParentMax=0;resizeLast=0;collapsible=1;marginBottom=0;whiteSpace=wrap;html=1;fillColor=#B3B3B3;strokeColor=#FFFFFF;" parent="1" vertex="1">
                    <mxGeometry x="-380" y="530" width="140" height="150" as="geometry"/>
                </mxCell>
                <mxCell id="140" value="Id" style="text;strokeColor=none;fillColor=#CC99FF;align=left;verticalAlign=middle;spacingLeft=4;spacingRight=4;overflow=hidden;points=[[0,0.5],[1,0.5]];portConstraint=eastwest;rotatable=0;whiteSpace=wrap;html=1;" parent="139" vertex="1">
                    <mxGeometry y="30" width="140" height="30" as="geometry"/>
                </mxCell>
                <mxCell id="260" value="name" style="text;strokeColor=none;fillColor=#E6E6E6;align=left;verticalAlign=middle;spacingLeft=4;spacingRight=4;overflow=hidden;points=[[0,0.5],[1,0.5]];portConstraint=eastwest;rotatable=0;whiteSpace=wrap;html=1;" parent="139" vertex="1">
                    <mxGeometry y="60" width="140" height="30" as="geometry"/>
                </mxCell>
                <mxCell id="159" value="&lt;span style=&quot;color: rgb(0, 0, 0);&quot;&gt;Created_at&lt;/span&gt;" style="text;strokeColor=none;fillColor=#E6E6E6;align=left;verticalAlign=middle;spacingLeft=4;spacingRight=4;overflow=hidden;points=[[0,0.5],[1,0.5]];portConstraint=eastwest;rotatable=0;whiteSpace=wrap;html=1;" parent="139" vertex="1">
                    <mxGeometry y="90" width="140" height="30" as="geometry"/>
                </mxCell>
                <mxCell id="160" value="&lt;span style=&quot;color: rgb(0, 0, 0);&quot;&gt;Updated_at&lt;/span&gt;" style="text;strokeColor=none;fillColor=#E6E6E6;align=left;verticalAlign=middle;spacingLeft=4;spacingRight=4;overflow=hidden;points=[[0,0.5],[1,0.5]];portConstraint=eastwest;rotatable=0;whiteSpace=wrap;html=1;" parent="139" vertex="1">
                    <mxGeometry y="120" width="140" height="30" as="geometry"/>
                </mxCell>
                <mxCell id="148" value="&lt;b&gt;motion_format&lt;/b&gt;" style="swimlane;fontStyle=0;childLayout=stackLayout;horizontal=1;startSize=30;horizontalStack=0;resizeParent=1;resizeParentMax=0;resizeLast=0;collapsible=1;marginBottom=0;whiteSpace=wrap;html=1;fillColor=#B3B3B3;strokeColor=#FFFFFF;" parent="1" vertex="1">
                    <mxGeometry x="-1090" y="700" width="140" height="150" as="geometry"/>
                </mxCell>
                <mxCell id="151" value="id" style="text;strokeColor=none;fillColor=#FFCCE6;align=left;verticalAlign=middle;spacingLeft=4;spacingRight=4;overflow=hidden;points=[[0,0.5],[1,0.5]];portConstraint=eastwest;rotatable=0;whiteSpace=wrap;html=1;" parent="148" vertex="1">
                    <mxGeometry y="30" width="140" height="30" as="geometry"/>
                </mxCell>
                <mxCell id="155" value="&lt;span style=&quot;color: rgb(0, 0, 0);&quot;&gt;name&lt;/span&gt;" style="text;strokeColor=none;fillColor=#E6E6E6;align=left;verticalAlign=middle;spacingLeft=4;spacingRight=4;overflow=hidden;points=[[0,0.5],[1,0.5]];portConstraint=eastwest;rotatable=0;whiteSpace=wrap;html=1;" parent="148" vertex="1">
                    <mxGeometry y="60" width="140" height="30" as="geometry"/>
                </mxCell>
                <mxCell id="269" value="&lt;span style=&quot;color: rgb(0, 0, 0);&quot;&gt;Created_at&lt;/span&gt;" style="text;strokeColor=none;fillColor=#E6E6E6;align=left;verticalAlign=middle;spacingLeft=4;spacingRight=4;overflow=hidden;points=[[0,0.5],[1,0.5]];portConstraint=eastwest;rotatable=0;whiteSpace=wrap;html=1;" parent="148" vertex="1">
                    <mxGeometry y="90" width="140" height="30" as="geometry"/>
                </mxCell>
                <mxCell id="156" value="&lt;span style=&quot;color: rgb(0, 0, 0);&quot;&gt;Updated_at&lt;/span&gt;" style="text;strokeColor=none;fillColor=#E6E6E6;align=left;verticalAlign=middle;spacingLeft=4;spacingRight=4;overflow=hidden;points=[[0,0.5],[1,0.5]];portConstraint=eastwest;rotatable=0;whiteSpace=wrap;html=1;" parent="148" vertex="1">
                    <mxGeometry y="120" width="140" height="30" as="geometry"/>
                </mxCell>
                <mxCell id="169" value="" style="edgeStyle=elbowEdgeStyle;elbow=horizontal;endArrow=classic;html=1;curved=0;rounded=0;endSize=8;startSize=8;entryX=0;entryY=0.5;entryDx=0;entryDy=0;exitX=1;exitY=0.5;exitDx=0;exitDy=0;" parent="1" source="166" target="137" edge="1">
                    <mxGeometry width="50" height="50" relative="1" as="geometry">
                        <mxPoint x="-590" y="890" as="sourcePoint"/>
                        <mxPoint x="-500" y="615" as="targetPoint"/>
                    </mxGeometry>
                </mxCell>
                <mxCell id="174" value="" style="edgeStyle=elbowEdgeStyle;elbow=horizontal;endArrow=classic;html=1;curved=0;rounded=0;endSize=8;startSize=8;entryX=1;entryY=0.25;entryDx=0;entryDy=0;exitX=0;exitY=0.5;exitDx=0;exitDy=0;" parent="1" source="173" target="129" edge="1">
                    <mxGeometry width="50" height="50" relative="1" as="geometry">
                        <mxPoint x="-800" y="860" as="sourcePoint"/>
                        <mxPoint x="-750" y="810" as="targetPoint"/>
                    </mxGeometry>
                </mxCell>
                <mxCell id="175" value="" style="edgeStyle=elbowEdgeStyle;elbow=horizontal;endArrow=classic;html=1;curved=0;rounded=0;endSize=8;startSize=8;entryX=1;entryY=0.5;entryDx=0;entryDy=0;exitX=0;exitY=0.5;exitDx=0;exitDy=0;" parent="1" source="161" target="110" edge="1">
                    <mxGeometry width="50" height="50" relative="1" as="geometry">
                        <mxPoint x="-800" y="635" as="sourcePoint"/>
                        <mxPoint x="-750" y="585" as="targetPoint"/>
                    </mxGeometry>
                </mxCell>
                <mxCell id="176" value="&lt;b&gt;recipe_has_ingredient&lt;/b&gt;" style="swimlane;fontStyle=0;childLayout=stackLayout;horizontal=1;startSize=30;horizontalStack=0;resizeParent=1;resizeParentMax=0;resizeLast=0;collapsible=1;marginBottom=0;whiteSpace=wrap;html=1;fillColor=#B3B3B3;strokeColor=#FFFFFF;" parent="1" vertex="1">
                    <mxGeometry x="-557.5" y="530" width="155" height="210" as="geometry">
                        <mxRectangle x="-555" y="520" width="170" height="30" as="alternateBounds"/>
                    </mxGeometry>
                </mxCell>
                <mxCell id="178" value="ingredient_id" style="text;strokeColor=none;fillColor=#CC99FF;align=left;verticalAlign=middle;spacingLeft=4;spacingRight=4;overflow=hidden;points=[[0,0.5],[1,0.5]];portConstraint=eastwest;rotatable=0;whiteSpace=wrap;html=1;" parent="176" vertex="1">
                    <mxGeometry y="30" width="155" height="30" as="geometry"/>
                </mxCell>
                <mxCell id="194" value="&lt;span style=&quot;color: rgb(0, 0, 0);&quot;&gt;recipe_id&lt;/span&gt;" style="text;strokeColor=none;fillColor=#CCE5FF;align=left;verticalAlign=middle;spacingLeft=4;spacingRight=4;overflow=hidden;points=[[0,0.5],[1,0.5]];portConstraint=eastwest;rotatable=0;whiteSpace=wrap;html=1;" parent="176" vertex="1">
                    <mxGeometry y="60" width="155" height="30" as="geometry"/>
                </mxCell>
                <mxCell id="195" value="&lt;span style=&quot;color: rgb(0, 0, 0);&quot;&gt;Quantity&lt;/span&gt;" style="text;strokeColor=none;fillColor=#E6E6E6;align=left;verticalAlign=middle;spacingLeft=4;spacingRight=4;overflow=hidden;points=[[0,0.5],[1,0.5]];portConstraint=eastwest;rotatable=0;whiteSpace=wrap;html=1;" parent="176" vertex="1">
                    <mxGeometry y="90" width="155" height="30" as="geometry"/>
                </mxCell>
                <mxCell id="243" value="&lt;span style=&quot;color: rgb(0, 0, 0);&quot;&gt;Unit&lt;/span&gt;" style="text;strokeColor=none;fillColor=#E6E6E6;align=left;verticalAlign=middle;spacingLeft=4;spacingRight=4;overflow=hidden;points=[[0,0.5],[1,0.5]];portConstraint=eastwest;rotatable=0;whiteSpace=wrap;html=1;" parent="176" vertex="1">
                    <mxGeometry y="120" width="155" height="30" as="geometry"/>
                </mxCell>
                <mxCell id="244" value="&lt;span style=&quot;color: rgb(0, 0, 0);&quot;&gt;Created_at&lt;/span&gt;" style="text;strokeColor=none;fillColor=#E6E6E6;align=left;verticalAlign=middle;spacingLeft=4;spacingRight=4;overflow=hidden;points=[[0,0.5],[1,0.5]];portConstraint=eastwest;rotatable=0;whiteSpace=wrap;html=1;" parent="176" vertex="1">
                    <mxGeometry y="150" width="155" height="30" as="geometry"/>
                </mxCell>
                <mxCell id="179" value="&lt;span style=&quot;color: rgb(0, 0, 0);&quot;&gt;Updated_at&lt;/span&gt;" style="text;strokeColor=none;fillColor=#E6E6E6;align=left;verticalAlign=middle;spacingLeft=4;spacingRight=4;overflow=hidden;points=[[0,0.5],[1,0.5]];portConstraint=eastwest;rotatable=0;whiteSpace=wrap;html=1;" parent="176" vertex="1">
                    <mxGeometry y="180" width="155" height="30" as="geometry"/>
                </mxCell>
                <mxCell id="191" value="" style="edgeStyle=elbowEdgeStyle;elbow=horizontal;endArrow=classic;html=1;curved=0;rounded=0;endSize=8;startSize=8;exitX=1;exitY=0.5;exitDx=0;exitDy=0;entryX=0;entryY=0.5;entryDx=0;entryDy=0;" parent="1" source="178" target="140" edge="1">
                    <mxGeometry width="50" height="50" relative="1" as="geometry">
                        <mxPoint x="-342.99999999999994" y="271.99" as="sourcePoint"/>
                        <mxPoint x="-160" y="272" as="targetPoint"/>
                        <Array as="points"/>
                    </mxGeometry>
                </mxCell>
                <mxCell id="193" value="" style="edgeStyle=elbowEdgeStyle;elbow=horizontal;endArrow=classic;html=1;curved=0;rounded=0;endSize=8;startSize=8;entryX=1;entryY=0.5;entryDx=0;entryDy=0;exitX=0;exitY=0.5;exitDx=0;exitDy=0;" parent="1" source="270" target="151" edge="1">
                    <mxGeometry width="50" height="50" relative="1" as="geometry">
                        <mxPoint x="-1112.89" y="980.94" as="sourcePoint"/>
                        <mxPoint x="-1180" y="670.01" as="targetPoint"/>
                        <Array as="points">
                            <mxPoint x="-920" y="980"/>
                        </Array>
                    </mxGeometry>
                </mxCell>
                <mxCell id="234" value="&lt;b&gt;motion_genre&lt;/b&gt;" style="swimlane;fontStyle=0;childLayout=stackLayout;horizontal=1;startSize=30;horizontalStack=0;resizeParent=1;resizeParentMax=0;resizeLast=0;collapsible=1;marginBottom=0;whiteSpace=wrap;html=1;fillColor=#B3B3B3;strokeColor=#FFFFFF;" parent="1" vertex="1">
                    <mxGeometry x="-1270" y="530" width="140" height="150" as="geometry"/>
                </mxCell>
                <mxCell id="237" value="id" style="text;strokeColor=none;fillColor=#FF6666;align=left;verticalAlign=middle;spacingLeft=4;spacingRight=4;overflow=hidden;points=[[0,0.5],[1,0.5]];portConstraint=eastwest;rotatable=0;whiteSpace=wrap;html=1;" parent="234" vertex="1">
                    <mxGeometry y="30" width="140" height="30" as="geometry"/>
                </mxCell>
                <mxCell id="250" value="name" style="text;strokeColor=none;fillColor=#E6E6E6;align=left;verticalAlign=middle;spacingLeft=4;spacingRight=4;overflow=hidden;points=[[0,0.5],[1,0.5]];portConstraint=eastwest;rotatable=0;whiteSpace=wrap;html=1;" parent="234" vertex="1">
                    <mxGeometry y="60" width="140" height="30" as="geometry"/>
                </mxCell>
                <mxCell id="268" value="Created_at" style="text;strokeColor=none;fillColor=#E6E6E6;align=left;verticalAlign=middle;spacingLeft=4;spacingRight=4;overflow=hidden;points=[[0,0.5],[1,0.5]];portConstraint=eastwest;rotatable=0;whiteSpace=wrap;html=1;" parent="234" vertex="1">
                    <mxGeometry y="90" width="140" height="30" as="geometry"/>
                </mxCell>
                <mxCell id="251" value="Updated_at" style="text;strokeColor=none;fillColor=#E6E6E6;align=left;verticalAlign=middle;spacingLeft=4;spacingRight=4;overflow=hidden;points=[[0,0.5],[1,0.5]];portConstraint=eastwest;rotatable=0;whiteSpace=wrap;html=1;" parent="234" vertex="1">
                    <mxGeometry y="120" width="140" height="30" as="geometry"/>
                </mxCell>
                <mxCell id="238" value="&lt;b&gt;motion_genre_has_motion&lt;/b&gt;" style="swimlane;fontStyle=0;childLayout=stackLayout;horizontal=1;startSize=30;horizontalStack=0;resizeParent=1;resizeParentMax=0;resizeLast=0;collapsible=1;marginBottom=0;whiteSpace=wrap;html=1;fillColor=#B3B3B3;strokeColor=#FFFFFF;" parent="1" vertex="1">
                    <mxGeometry x="-1090" y="530" width="170" height="150" as="geometry"/>
                </mxCell>
                <mxCell id="239" value="motion_genre_id" style="text;strokeColor=none;fillColor=#FF6666;align=left;verticalAlign=middle;spacingLeft=4;spacingRight=4;overflow=hidden;points=[[0,0.5],[1,0.5]];portConstraint=eastwest;rotatable=0;whiteSpace=wrap;html=1;" parent="238" vertex="1">
                    <mxGeometry y="30" width="170" height="30" as="geometry"/>
                </mxCell>
                <mxCell id="240" value="motion_id" style="text;strokeColor=none;fillColor=#E6FFCC;align=left;verticalAlign=middle;spacingLeft=4;spacingRight=4;overflow=hidden;points=[[0,0.5],[1,0.5]];portConstraint=eastwest;rotatable=0;whiteSpace=wrap;html=1;" parent="238" vertex="1">
                    <mxGeometry y="60" width="170" height="30" as="geometry"/>
                </mxCell>
                <mxCell id="246" value="Created_at" style="text;strokeColor=none;fillColor=#E6E6E6;align=left;verticalAlign=middle;spacingLeft=4;spacingRight=4;overflow=hidden;points=[[0,0.5],[1,0.5]];portConstraint=eastwest;rotatable=0;whiteSpace=wrap;html=1;" parent="238" vertex="1">
                    <mxGeometry y="90" width="170" height="30" as="geometry"/>
                </mxCell>
                <mxCell id="247" value="Updated_at" style="text;strokeColor=none;fillColor=#E6E6E6;align=left;verticalAlign=middle;spacingLeft=4;spacingRight=4;overflow=hidden;points=[[0,0.5],[1,0.5]];portConstraint=eastwest;rotatable=0;whiteSpace=wrap;html=1;" parent="238" vertex="1">
                    <mxGeometry y="120" width="170" height="30" as="geometry"/>
                </mxCell>
                <mxCell id="241" value="" style="edgeStyle=elbowEdgeStyle;elbow=horizontal;endArrow=classic;html=1;curved=0;rounded=0;endSize=8;startSize=8;exitX=1;exitY=0.5;exitDx=0;exitDy=0;entryX=0;entryY=0.5;entryDx=0;entryDy=0;" parent="1" source="240" target="130" edge="1">
                    <mxGeometry width="50" height="50" relative="1" as="geometry">
                        <mxPoint x="-1090" y="960" as="sourcePoint"/>
                        <mxPoint x="-900" y="855" as="targetPoint"/>
                    </mxGeometry>
                </mxCell>
                <mxCell id="242" value="" style="edgeStyle=elbowEdgeStyle;elbow=horizontal;endArrow=classic;html=1;curved=0;rounded=0;endSize=8;startSize=8;exitX=0;exitY=0.5;exitDx=0;exitDy=0;entryX=1;entryY=0.5;entryDx=0;entryDy=0;" parent="1" source="239" target="237" edge="1">
                    <mxGeometry width="50" height="50" relative="1" as="geometry">
                        <mxPoint x="-1272" y="850" as="sourcePoint"/>
                        <mxPoint x="-1220" y="860" as="targetPoint"/>
                        <Array as="points"/>
                    </mxGeometry>
                </mxCell>
                <mxCell id="252" value="&lt;b&gt;difficulty&lt;/b&gt;" style="swimlane;fontStyle=0;childLayout=stackLayout;horizontal=1;startSize=30;horizontalStack=0;resizeParent=1;resizeParentMax=0;resizeLast=0;collapsible=1;marginBottom=0;whiteSpace=wrap;html=1;fillColor=#B3B3B3;strokeColor=#FFFFFF;" parent="1" vertex="1">
                    <mxGeometry x="-560" y="930" width="157.5" height="150" as="geometry"/>
                </mxCell>
                <mxCell id="253" value="Id" style="text;strokeColor=none;fillColor=#FF0080;align=left;verticalAlign=middle;spacingLeft=4;spacingRight=4;overflow=hidden;points=[[0,0.5],[1,0.5]];portConstraint=eastwest;rotatable=0;whiteSpace=wrap;html=1;" parent="252" vertex="1">
                    <mxGeometry y="30" width="157.5" height="30" as="geometry"/>
                </mxCell>
                <mxCell id="263" value="name" style="text;strokeColor=none;fillColor=#E6E6E6;align=left;verticalAlign=middle;spacingLeft=4;spacingRight=4;overflow=hidden;points=[[0,0.5],[1,0.5]];portConstraint=eastwest;rotatable=0;whiteSpace=wrap;html=1;" parent="252" vertex="1">
                    <mxGeometry y="60" width="157.5" height="30" as="geometry"/>
                </mxCell>
                <mxCell id="255" value="&lt;span style=&quot;color: rgb(0, 0, 0);&quot;&gt;Created_at&lt;/span&gt;" style="text;strokeColor=none;fillColor=#E6E6E6;align=left;verticalAlign=middle;spacingLeft=4;spacingRight=4;overflow=hidden;points=[[0,0.5],[1,0.5]];portConstraint=eastwest;rotatable=0;whiteSpace=wrap;html=1;" parent="252" vertex="1">
                    <mxGeometry y="90" width="157.5" height="30" as="geometry"/>
                </mxCell>
                <mxCell id="256" value="&lt;span style=&quot;color: rgb(0, 0, 0);&quot;&gt;Updated_at&lt;/span&gt;" style="text;strokeColor=none;fillColor=#E6E6E6;align=left;verticalAlign=middle;spacingLeft=4;spacingRight=4;overflow=hidden;points=[[0,0.5],[1,0.5]];portConstraint=eastwest;rotatable=0;whiteSpace=wrap;html=1;" parent="252" vertex="1">
                    <mxGeometry y="120" width="157.5" height="30" as="geometry"/>
                </mxCell>
                <mxCell id="258" value="" style="edgeStyle=elbowEdgeStyle;elbow=horizontal;endArrow=classic;html=1;curved=0;rounded=0;endSize=8;startSize=8;exitX=1;exitY=0.5;exitDx=0;exitDy=0;entryX=0;entryY=0.5;entryDx=0;entryDy=0;" parent="1" source="257" target="253" edge="1">
                    <mxGeometry width="50" height="50" relative="1" as="geometry">
                        <mxPoint x="-570" y="1010" as="sourcePoint"/>
                        <mxPoint x="-520" y="960" as="targetPoint"/>
                    </mxGeometry>
                </mxCell>
                <mxCell id="259" value="" style="edgeStyle=elbowEdgeStyle;elbow=horizontal;endArrow=classic;html=1;curved=0;rounded=0;endSize=8;startSize=8;entryX=1;entryY=0.5;entryDx=0;entryDy=0;exitX=0;exitY=0.5;exitDx=0;exitDy=0;" parent="1" source="194" target="117" edge="1">
                    <mxGeometry width="50" height="50" relative="1" as="geometry">
                        <mxPoint x="-580" y="650" as="sourcePoint"/>
                        <mxPoint x="-530" y="600" as="targetPoint"/>
                    </mxGeometry>
                </mxCell>
            </root>
        </mxGraphModel>
    </diagram>
</mxfile>